# xmcd CD database file
#
# Track frame offsets:
#	150
#	13705
#	28105
#	50485
#	73170
#	90182
#	105542
#	120255
#	137025
#	147655
#	164165
#
# Disc length: 2380 seconds
#
# Revision: 0
# Processed by: cddbd v1.5.1PL0 Copyright (c) Steve Scherf et al.
# Submitted via: CDex 1.51
#
DISCID=98094a0b
DTITLE=Tony D. Band - do Gotta do
DYEAR=1996
DGENRE=Blues
TTITLE0=Wondering Mind
TTITLE1=She's In Love
TTITLE2=I'm Gonna Leave You
TTITLE3=Get Yourself Some
TTITLE4=Ain't That Lovin' You Babe
TTITLE5=Fried Ice
TTITLE6=Watch Yourself
TTITLE7=Voodoo Music
TTITLE8=Do Gotta Do
TTITLE9=Honipot
TTITLE10=Blues For Anna
EXTD=YEAR: 1996
EXTT0=
EXTT1=
EXTT2=
EXTT3=
EXTT4=
EXTT5=
EXTT6=
EXTT7=
EXTT8=
EXTT9=
EXTT10=
PLAYORDER=
